<svg width="40" height="40" viewBox="0 0 40 40" fill="none" xmlns="http://www.w3.org/2000/svg">
<path fill-rule="evenodd" clip-rule="evenodd" d="M18.3166 13.3333C18.3166 16.0999 16.1 18.3333 13.3333 18.3333C10.5666 18.3333 8.33329 16.0999 8.33329 13.3333C8.33329 10.5666 10.5666 8.33325 13.3333 8.33325C16.1 8.33325 18.3166 10.5666 18.3166 13.3333ZM31.65 13.3333C31.65 16.0999 29.4333 18.3333 26.6666 18.3333C23.9 18.3333 21.6666 16.0999 21.6666 13.3333C21.6666 10.5666 23.9 8.33325 26.6666 8.33325C29.4333 8.33325 31.65 10.5666 31.65 13.3333ZM13.3333 21.6666C9.44996 21.6666 1.66663 23.6166 1.66663 27.4999V29.9999C1.66663 30.9166 2.41663 31.6666 3.33329 31.6666H23.3333C24.25 31.6666 25 30.9166 25 29.9999V27.4999C25 23.6166 17.2166 21.6666 13.3333 21.6666ZM25.05 21.7499C25.6333 21.6999 26.1833 21.6666 26.6666 21.6666C30.55 21.6666 38.3333 23.6166 38.3333 27.4999V29.9999C38.3333 30.9166 37.5833 31.6666 36.6666 31.6666H28.0333C28.2166 31.1499 28.3333 30.5833 28.3333 29.9999V27.4999C28.3333 25.0499 27.0166 23.1999 25.1166 21.8166C25.1116 21.8115 25.1065 21.805 25.101 21.7978C25.0883 21.7813 25.0732 21.7615 25.05 21.7499Z" fill="#F65664"/>
</svg>
