<svg id="Capa_1" data-name="Capa 1" xmlns="http://www.w3.org/2000/svg" viewBox="0 0 1077.36 647.97"><defs><style>.cls-1{fill:#19193f;}.cls-2{fill:#ed3b56;}</style></defs><path class="cls-1" d="M179.92,468.32l-62.75,177H63l-63-177H48.53L81,575.31l9.65,34.85L100,575.84l33-107.52Z"/><path class="cls-1" d="M311.31,619q-9.39,0-9.39-10.46V559.48q0-16.62-7.37-28T273.37,514.3q-13.81-5.76-33.39-5.76-29.22,0-45.31,11.53a47.87,47.87,0,0,0-19.84,30.83L213.44,560q2.42-11.26,8.71-15.69a25.68,25.68,0,0,1,15.15-4.42q8.85,0,14.08,5.5t5.23,14.88v3.83l-46.39,9.57q-18.76,3.76-27.48,13.28T174,611q0,12.07,5.5,20.25a34.37,34.37,0,0,0,15.68,12.47Q205.4,648,219.07,648a69,69,0,0,0,22.66-3.76,40.65,40.65,0,0,0,17.69-11.53,26.4,26.4,0,0,0,3.34-4.74,24.27,24.27,0,0,0,3,6.22,27.41,27.41,0,0,0,12.61,10.19,47.85,47.85,0,0,0,18.5,3.35q11.52,0,19.57-3.75l2.68-26A23.39,23.39,0,0,1,311.31,619Zm-54.7-23.33a25.29,25.29,0,0,1-1.88,10.19,19.93,19.93,0,0,1-5.09,7.11,20.85,20.85,0,0,1-7.38,4.15,28,28,0,0,1-8.71,1.34,17.5,17.5,0,0,1-10.19-3q-4.29-2.94-4.29-8.85,0-6.17,3.89-9.25t11.93-4.69l21.72-4.52Z"/><path class="cls-1" d="M382.09,454.38V599.71q0,8.85,3,12.6t9.92,3.75a35,35,0,0,0,6.71-.53c1.78-.36,3.93-.9,6.43-1.61l-3,27.35a43.82,43.82,0,0,1-12.6,4.82A65.1,65.1,0,0,1,377.27,648q-21.47,0-31.11-9.92t-9.65-32.44V454.38Z"/><path class="cls-1" d="M447.52,495.67q-13.95,0-20.25-5.23T421,474q0-11.52,6.3-16.76T447.52,452q13.67,0,20.11,5.23T474.06,474q0,11.26-6.43,16.49T447.52,495.67Zm22.79,15.55V645.29H424.72V511.22Z"/><path class="cls-1" d="M592.57,454.37v79.79a49.52,49.52,0,0,0-10.05-14.49q-11.13-11.13-29.36-11.13-16.63,0-29.36,8.31T504,540.71q-7.11,15.56-7.11,38.08,0,21.72,6.84,37.27T523,639.79q12.48,8.18,29.1,8.18a47,47,0,0,0,22.92-5.5,47.74,47.74,0,0,0,20.72-23l1.67,25.86h40.76V454.37Zm-2.94,143.46q-3,8.31-8.45,12.46a21.33,21.33,0,0,1-13.27,4.16q-11.8,0-18.51-8.71t-6.7-27.49q0-18.76,6.84-27.48t18.63-8.72a21.4,21.4,0,0,1,13.28,4.16q5.49,4.15,8.31,12.07t2.81,19.17Q592.57,589.51,589.63,597.83Z"/><path class="cls-1" d="M800.38,619Q791,619,791,608.55V559.48q0-16.62-7.37-28T762.44,514.3q-13.82-5.76-33.38-5.76-29.23,0-45.32,11.53A47.87,47.87,0,0,0,663.9,550.9L702.51,560q2.41-11.26,8.71-15.69a25.68,25.68,0,0,1,15.15-4.42q8.85,0,14.08,5.5t5.23,14.88v3.83l-46.39,9.57q-18.76,3.76-27.48,13.28t-8.72,24q0,12.07,5.5,20.25a34.34,34.34,0,0,0,15.69,12.47Q694.47,648,708.14,648a69,69,0,0,0,22.66-3.76,40.6,40.6,0,0,0,17.69-11.53,26.4,26.4,0,0,0,3.34-4.74,24.3,24.3,0,0,0,3,6.22,27.38,27.38,0,0,0,12.6,10.19,47.85,47.85,0,0,0,18.5,3.35q11.52,0,19.57-3.75l2.68-26A23.31,23.31,0,0,1,800.38,619Zm-54.7-23.33a25.29,25.29,0,0,1-1.88,10.19,19.93,19.93,0,0,1-5.09,7.11,20.85,20.85,0,0,1-7.38,4.15,28,28,0,0,1-8.71,1.34,17.52,17.52,0,0,1-10.19-3q-4.29-2.94-4.29-8.85,0-6.17,3.89-9.25T724,592.73l21.72-4.52Z"/><path class="cls-1" d="M918.9,637.78a50.83,50.83,0,0,1-16.9,7.51A82.12,82.12,0,0,1,881.09,648q-15.29,0-26.41-4.29A34.48,34.48,0,0,1,837.52,630q-6-9.37-6.3-24.93V543.66H808.16V511.22h23.06v-30l45.58-12.61v42.64h40v32.44h-40v53.9q0,9.65,4.69,13.81t13,4.15a37.36,37.36,0,0,0,11.12-1.47,26.17,26.17,0,0,0,8.45-4.43Z"/><path class="cls-1" d="M1069.59,619q-9.39,0-9.39-10.46V559.48q0-16.62-7.37-28t-21.18-17.16q-13.82-5.76-33.39-5.76-29.22,0-45.31,11.53a47.87,47.87,0,0,0-19.84,30.83L971.72,560q2.41-11.26,8.71-15.69a25.68,25.68,0,0,1,15.15-4.42q8.85,0,14.08,5.5t5.23,14.88v3.83l-46.39,9.57Q949.74,577.46,941,587t-8.72,24q0,12.07,5.5,20.25a34.37,34.37,0,0,0,15.68,12.47q10.2,4.27,23.87,4.29a68.87,68.87,0,0,0,22.65-3.76,40.69,40.69,0,0,0,17.7-11.53A25.92,25.92,0,0,0,1021,628a25.26,25.26,0,0,0,3,6.21,27.41,27.41,0,0,0,12.61,10.19,47.85,47.85,0,0,0,18.5,3.35q11.52,0,19.57-3.75l2.68-26A23.39,23.39,0,0,1,1069.59,619Zm-54.7-23.33a25.29,25.29,0,0,1-1.88,10.19,19.83,19.83,0,0,1-5.1,7.11,20.72,20.72,0,0,1-7.37,4.15,28,28,0,0,1-8.71,1.34,17.48,17.48,0,0,1-10.19-3q-4.29-2.94-4.29-8.85,0-6.17,3.89-9.25t11.93-4.69l21.72-4.52Z"/><path class="cls-2" d="M433.3,27.68A70.08,70.08,0,0,0,378.1.54H203.58L330.67,166.88a21.21,21.21,0,0,0,29.93,3.65l.37-.26a21.26,21.26,0,0,0,4.33-29.83L291.69,44.11H378.1A26.37,26.37,0,0,1,398.81,54.3L580.74,290.39l27.52-35.66Z"/><path class="cls-1" d="M785.7,0a61.27,61.27,0,0,0-52.62,92.77L608.33,254.83l-.07-.1-27.52,35.66.1.13-34.65,45.05a20,20,0,0,1-16,7.84h0a19.83,19.83,0,0,1-15.92-7.91l-22.66-29.66-21.21-27.78a61.3,61.3,0,1,0-52.09,29,60,60,0,0,0,17.46-2.55L457,332.29,479.66,362a63.19,63.19,0,0,0,50.47,25h.1a63.12,63.12,0,0,0,50.48-24.87l186.52-242.3,0,0A61.37,61.37,0,0,0,847,61.3,61.37,61.37,0,0,0,785.7,0Zm-350,249.33a19,19,0,0,1-1,3.32,21.64,21.64,0,0,1-1.65,3,18,18,0,0,1-4.79,4.79,22,22,0,0,1-3,1.64,13.4,13.4,0,0,1-2.49.81c-.2,0-.4.1-.6.13a8.15,8.15,0,0,1-1.81.3,13.58,13.58,0,0,1-2,.14,16.77,16.77,0,0,1-5.7-1,10.7,10.7,0,0,1-2.24-.93,7.42,7.42,0,0,1-1.08-.57,12.62,12.62,0,0,1-1.67-1.14,17.6,17.6,0,0,1-7-14.11,15.56,15.56,0,0,1,.1-1.81,15.29,15.29,0,0,1,.27-1.78,19,19,0,0,1,1-3.32,21.53,21.53,0,0,1,1.65-3,18.08,18.08,0,0,1,4.79-4.8,22.66,22.66,0,0,1,3-1.64,18.89,18.89,0,0,1,3.31-1,15.92,15.92,0,0,1,1.78-.26,18.72,18.72,0,0,1,2-.07,15.39,15.39,0,0,1,3.25.33,1.63,1.63,0,0,1,.33.07,22,22,0,0,1,3.16.94,23.18,23.18,0,0,1,3,1.64,18.82,18.82,0,0,1,2.62,2.18,17.69,17.69,0,0,1,5.19,12.54,15.81,15.81,0,0,1-.1,1.81A15.45,15.45,0,0,1,435.68,249.33ZM785.7,79A17.73,17.73,0,1,1,803.43,61.3,17.76,17.76,0,0,1,785.7,79Z"/></svg>