<svg id="Capa_1" data-name="Capa 1" xmlns="http://www.w3.org/2000/svg" viewBox="0 0 1077.36 647.97"><defs><style>.cls-1{fill:#fff;}.cls-2{fill:#ed3b56;}</style></defs><polygon class="cls-1" points="133 468.32 100.01 575.84 90.63 610.16 80.98 575.31 48.53 468.32 0 468.32 63.01 645.29 117.17 645.29 179.92 468.32 133 468.32"/><path class="cls-1" d="M301.92,608.56V559.49q0-16.62-7.37-28t-21.19-17.16q-13.8-5.77-33.38-5.77-29.22,0-45.31,11.53a48,48,0,0,0-19.85,30.84L213.44,560q2.4-11.25,8.71-15.68a25.69,25.69,0,0,1,15.15-4.43q8.85,0,14.08,5.5t5.23,14.88v3.84l-46.39,9.57q-18.78,3.75-27.49,13.27T174,611q0,12.06,5.5,20.24a34.3,34.3,0,0,0,15.68,12.47Q205.39,648,219.07,648a68.9,68.9,0,0,0,22.65-3.75,40.78,40.78,0,0,0,17.7-11.53,27.2,27.2,0,0,0,3.34-4.78,24.65,24.65,0,0,0,3,6.25,27.37,27.37,0,0,0,12.6,10.19,47.9,47.9,0,0,0,18.51,3.35q11.52,0,19.57-3.75l2.68-26a23.14,23.14,0,0,1-7.77,1.07Q301.92,619,301.92,608.56Zm-47.19-2.69a19.74,19.74,0,0,1-5.1,7.11,20.74,20.74,0,0,1-7.37,4.16,28.33,28.33,0,0,1-8.71,1.34,17.48,17.48,0,0,1-10.19-3q-4.29-3-4.29-8.85,0-6.16,3.88-9.25t11.94-4.69l21.72-4.53v7.47A25.26,25.26,0,0,1,254.73,605.87Z"/><path class="cls-1" d="M395,616.06q-7,0-9.92-3.75t-3-12.6V454.38H336.51V605.61q0,22.51,9.65,32.44T377.27,648a65.1,65.1,0,0,0,15.28-1.88,43.82,43.82,0,0,0,12.6-4.82l3-27.35c-2.5.71-4.65,1.25-6.43,1.61A35,35,0,0,1,395,616.06Z"/><path class="cls-1" d="M467.63,457.19Q461.19,452,447.52,452q-13.95,0-20.25,5.23T421,474q0,11.26,6.3,16.49t20.25,5.23q13.67,0,20.11-5.23T474.06,474Q474.06,462.43,467.63,457.19Z"/><rect class="cls-1" x="424.72" y="511.22" width="45.58" height="134.07"/><path class="cls-1" d="M592.57,534.19a49.66,49.66,0,0,0-10.05-14.52q-11.13-11.13-29.36-11.13-16.63,0-29.36,8.31T504,540.72q-7.09,15.56-7.1,38.07,0,21.72,6.84,37.27T523,639.79Q535.45,648,552.08,648a47,47,0,0,0,22.93-5.5,46.47,46.47,0,0,0,16.62-15.41,48.12,48.12,0,0,0,4.1-7.63l1.67,25.86h40.76V454.38H592.57Zm-3,63.64q-3,8.31-8.44,12.47a21.39,21.39,0,0,1-13.28,4.15q-11.79,0-18.5-8.71t-6.7-27.48q0-18.76,6.84-27.49t18.63-8.71a21.34,21.34,0,0,1,13.27,4.15,25.29,25.29,0,0,1,8.32,12.07,57.61,57.61,0,0,1,2.81,19.17Q592.57,589.53,589.62,597.83Z"/><path class="cls-1" d="M791,608.56V559.49q0-16.62-7.37-28t-21.18-17.16q-13.82-5.77-33.39-5.77-29.22,0-45.31,11.53a47.92,47.92,0,0,0-19.84,30.84L702.51,560q2.41-11.25,8.71-15.68a25.69,25.69,0,0,1,15.15-4.43q8.85,0,14.08,5.5t5.23,14.88v3.84l-46.39,9.57q-18.76,3.75-27.48,13.27t-8.72,24q0,12.06,5.5,20.24a34.3,34.3,0,0,0,15.68,12.47q10.2,4.29,23.87,4.29a69,69,0,0,0,22.66-3.75,40.74,40.74,0,0,0,17.69-11.53,26.68,26.68,0,0,0,3.34-4.78,24.65,24.65,0,0,0,3,6.25,27.35,27.35,0,0,0,12.61,10.19,47.85,47.85,0,0,0,18.5,3.35q11.52,0,19.57-3.75l2.68-26a23.14,23.14,0,0,1-7.77,1.07Q791,619,791,608.56Zm-47.19-2.69a19.84,19.84,0,0,1-5.09,7.11,20.87,20.87,0,0,1-7.38,4.16,28.33,28.33,0,0,1-8.71,1.34,17.5,17.5,0,0,1-10.19-3q-4.29-3-4.29-8.85,0-6.16,3.89-9.25T724,592.74l21.72-4.53v7.47A25.26,25.26,0,0,1,743.8,605.87Z"/><path class="cls-1" d="M905.62,614.05a37.09,37.09,0,0,1-11.13,1.48q-8.31,0-13-4.16t-4.69-13.81V543.67h40V511.22h-40V468.59l-45.59,12.6v30H808.15v32.45h23.06v61.4q.27,15.55,6.31,24.94a34.47,34.47,0,0,0,17.16,13.67Q865.8,648,881.09,648A82.18,82.18,0,0,0,902,645.29a51,51,0,0,0,16.9-7.51l-4.83-28.15A26.25,26.25,0,0,1,905.62,614.05Z"/><path class="cls-1" d="M1069.58,619q-9.39,0-9.38-10.45V559.49q0-16.62-7.37-28t-21.19-17.16q-13.82-5.77-33.38-5.77-29.24,0-45.32,11.53a48,48,0,0,0-19.84,30.84L971.71,560q2.41-11.25,8.72-15.68a25.69,25.69,0,0,1,15.15-4.43q8.85,0,14.08,5.5t5.22,14.88v3.84L968.5,573.7Q949.72,577.45,941,587t-8.71,24q0,12.06,5.5,20.24a34.3,34.3,0,0,0,15.68,12.47Q963.67,648,977.35,648a68.9,68.9,0,0,0,22.65-3.75,40.78,40.78,0,0,0,17.7-11.53,27.2,27.2,0,0,0,3.34-4.78,24.65,24.65,0,0,0,3,6.25,27.37,27.37,0,0,0,12.6,10.19,47.9,47.9,0,0,0,18.51,3.35q11.52,0,19.57-3.75l2.68-26A23.16,23.16,0,0,1,1069.58,619ZM1013,605.87a19.86,19.86,0,0,1-5.1,7.11,20.74,20.74,0,0,1-7.37,4.16,28.35,28.35,0,0,1-8.72,1.34,17.47,17.47,0,0,1-10.18-3c-2.87-2-4.29-4.92-4.29-8.85q0-6.16,3.88-9.25t11.94-4.69l21.71-4.53v7.47A25.26,25.26,0,0,1,1013,605.87Z"/><path class="cls-2" d="M433.3,27.68A70.08,70.08,0,0,0,378.1.54H203.58L330.67,166.88a21.21,21.21,0,0,0,29.93,3.65l.37-.26a21.26,21.26,0,0,0,4.33-29.83L291.69,44.11H378.1A26.37,26.37,0,0,1,398.81,54.3L580.74,290.39l27.52-35.66Z"/><path class="cls-1" d="M785.7,0a61.27,61.27,0,0,0-52.62,92.77L608.33,254.83l-.07-.1-27.52,35.66.1.13-34.65,45.05a20,20,0,0,1-16,7.84h0a19.83,19.83,0,0,1-15.92-7.91l-22.66-29.66-21.21-27.78a61.3,61.3,0,1,0-52.09,29,60,60,0,0,0,17.46-2.55L457,332.29,479.66,362a63.19,63.19,0,0,0,50.47,25h.1a63.12,63.12,0,0,0,50.48-24.87l186.52-242.3,0,0A61.37,61.37,0,0,0,847,61.3,61.37,61.37,0,0,0,785.7,0Zm-350,249.33a19,19,0,0,1-1,3.32,21.64,21.64,0,0,1-1.65,3,18,18,0,0,1-4.79,4.79,22,22,0,0,1-3,1.64,13.4,13.4,0,0,1-2.49.81c-.2,0-.4.1-.6.13a8.15,8.15,0,0,1-1.81.3,13.58,13.58,0,0,1-2,.14,16.77,16.77,0,0,1-5.7-1,10.7,10.7,0,0,1-2.24-.93,7.42,7.42,0,0,1-1.08-.57,12.62,12.62,0,0,1-1.67-1.14,17.6,17.6,0,0,1-7-14.11,15.56,15.56,0,0,1,.1-1.81,15.29,15.29,0,0,1,.27-1.78,19,19,0,0,1,1-3.32,21.53,21.53,0,0,1,1.65-3,18.08,18.08,0,0,1,4.79-4.8,22.66,22.66,0,0,1,3-1.64,18.89,18.89,0,0,1,3.31-1,15.92,15.92,0,0,1,1.78-.26,18.72,18.72,0,0,1,2-.07,15.39,15.39,0,0,1,3.25.33,1.63,1.63,0,0,1,.33.07,22,22,0,0,1,3.16.94,23.18,23.18,0,0,1,3,1.64,18.82,18.82,0,0,1,2.62,2.18,17.69,17.69,0,0,1,5.19,12.54,15.81,15.81,0,0,1-.1,1.81A15.45,15.45,0,0,1,435.68,249.33ZM785.7,79A17.73,17.73,0,1,1,803.43,61.3,17.76,17.76,0,0,1,785.7,79Z"/></svg>