<svg id="Capa_1" data-name="Capa 1" xmlns="http://www.w3.org/2000/svg" viewBox="0 0 1786.84 386.99"><defs><style>.cls-1{fill:#fff;}.cls-2{fill:#ed3b56;}</style></defs><polygon class="cls-1" points="842.48 111.85 809.49 219.37 800.11 253.69 790.46 218.83 758.01 111.85 709.48 111.85 772.49 288.81 826.65 288.81 889.4 111.85 842.48 111.85"/><path class="cls-1" d="M1011.4,252.08V203q0-16.62-7.37-28t-21.19-17.16q-13.82-5.76-33.38-5.76-29.24,0-45.31,11.53a47.89,47.89,0,0,0-19.85,30.83l38.62,9.12q2.4-11.27,8.71-15.69a25.68,25.68,0,0,1,15.15-4.42q8.85,0,14.08,5.49t5.23,14.89v3.83l-46.39,9.57Q900.92,221,892.21,230.5t-8.71,24q0,12.08,5.5,20.25a34.37,34.37,0,0,0,15.68,12.47q10.19,4.28,23.87,4.29a68.91,68.91,0,0,0,22.65-3.76,40.69,40.69,0,0,0,17.7-11.53,26.77,26.77,0,0,0,3.34-4.77,25,25,0,0,0,3,6.25,27.43,27.43,0,0,0,12.6,10.19,47.9,47.9,0,0,0,18.51,3.35q11.52,0,19.57-3.76l2.68-26a23.42,23.42,0,0,1-7.78,1.07Q1011.41,262.54,1011.4,252.08Zm-47.19-2.68a19.7,19.7,0,0,1-5.1,7.1,20.59,20.59,0,0,1-7.37,4.16A28,28,0,0,1,943,262a17.48,17.48,0,0,1-10.19-2.95c-2.87-2-4.29-4.91-4.29-8.85q0-6.16,3.88-9.25t11.94-4.69l21.72-4.52v7.47A25.32,25.32,0,0,1,964.21,249.4Z"/><path class="cls-1" d="M1104.44,259.59q-7,0-9.92-3.76t-3-12.6V97.9H1046V249.13q0,22.53,9.65,32.45t31.1,9.92a65.12,65.12,0,0,0,15.29-1.88,44.1,44.1,0,0,0,12.6-4.83l2.95-27.35q-3.76,1.08-6.43,1.61A34.87,34.87,0,0,1,1104.44,259.59Z"/><rect class="cls-1" x="1134.2" y="154.75" width="45.58" height="134.07"/><path class="cls-1" d="M1177.11,100.72q-6.43-5.23-20.11-5.23-13.95,0-20.25,5.23t-6.3,16.76q0,11.25,6.3,16.49T1157,139.2q13.66,0,20.11-5.23t6.43-16.49Q1183.54,105.95,1177.11,100.72Z"/><path class="cls-1" d="M1302.05,177.72a49.58,49.58,0,0,0-10-14.53q-11.13-11.12-29.36-11.12-16.64,0-29.36,8.31t-19.85,23.86q-7.1,15.56-7.1,38.08,0,21.72,6.84,37.27t19.3,23.73q12.46,8.18,29.09,8.18a47.07,47.07,0,0,0,22.93-5.5,46.41,46.41,0,0,0,16.62-15.42,47.69,47.69,0,0,0,4.1-7.63l1.67,25.86h40.76V97.9h-45.59Zm-3,63.63q-3,8.33-8.44,12.47a21.34,21.34,0,0,1-13.28,4.16q-11.79,0-18.5-8.71t-6.7-27.49q0-18.76,6.84-27.48t18.63-8.72a21.37,21.37,0,0,1,13.27,4.16q5.5,4.15,8.32,12.07a57.61,57.61,0,0,1,2.81,19.17Q1302.05,233,1299.1,241.35Z"/><path class="cls-1" d="M1500.47,252.08V203q0-16.62-7.37-28t-21.18-17.16q-13.82-5.76-33.39-5.76-29.22,0-45.31,11.53a47.87,47.87,0,0,0-19.84,30.83l38.61,9.12q2.41-11.27,8.71-15.69a25.68,25.68,0,0,1,15.15-4.42q8.85,0,14.08,5.49t5.23,14.89v3.83l-46.39,9.57Q1390,221,1381.29,230.5t-8.72,24q0,12.08,5.5,20.25a34.37,34.37,0,0,0,15.68,12.47q10.2,4.28,23.87,4.29a69,69,0,0,0,22.66-3.76A40.65,40.65,0,0,0,1458,276.21a26.26,26.26,0,0,0,3.34-4.77,25,25,0,0,0,3,6.25,27.41,27.41,0,0,0,12.61,10.19,47.85,47.85,0,0,0,18.5,3.35q11.52,0,19.57-3.76l2.68-26a23.39,23.39,0,0,1-7.77,1.07Q1500.47,262.54,1500.47,252.08Zm-47.19-2.68a19.8,19.8,0,0,1-5.09,7.1,20.72,20.72,0,0,1-7.38,4.16,28,28,0,0,1-8.71,1.34,17.5,17.5,0,0,1-10.19-2.95q-4.29-2.94-4.29-8.85,0-6.16,3.89-9.25t11.93-4.69l21.72-4.52v7.47A25.32,25.32,0,0,1,1453.28,249.4Z"/><path class="cls-1" d="M1615.1,257.58a37.43,37.43,0,0,1-11.13,1.47q-8.31,0-13-4.15t-4.69-13.81v-53.9h40V154.75h-40V112.11l-45.59,12.61v30h-23.06v32.44h23.06v61.4q.27,15.55,6.3,24.94a34.55,34.55,0,0,0,17.17,13.68q11.11,4.28,26.41,4.29a81.74,81.74,0,0,0,20.91-2.69,50.86,50.86,0,0,0,16.89-7.5l-4.82-28.16A26.27,26.27,0,0,1,1615.1,257.58Z"/><path class="cls-1" d="M1779.06,262.54q-9.39,0-9.38-10.46V203q0-16.62-7.37-28t-21.19-17.16q-13.81-5.76-33.38-5.76-29.23,0-45.32,11.53a47.91,47.91,0,0,0-19.84,30.83l38.61,9.12q2.41-11.27,8.72-15.69a25.68,25.68,0,0,1,15.15-4.42q8.85,0,14.08,5.49t5.22,14.89v3.83L1678,217.22q-18.78,3.76-27.49,13.28t-8.71,24q0,12.08,5.5,20.25A34.37,34.37,0,0,0,1663,287.21q10.18,4.28,23.86,4.29a68.93,68.93,0,0,0,22.66-3.76,40.69,40.69,0,0,0,17.7-11.53,26.21,26.21,0,0,0,3.33-4.77,25.35,25.35,0,0,0,3,6.25,27.43,27.43,0,0,0,12.6,10.19,47.88,47.88,0,0,0,18.5,3.35q11.54,0,19.58-3.76l2.68-26A23.42,23.42,0,0,1,1779.06,262.54Zm-56.57-13.14a19.82,19.82,0,0,1-5.1,7.1,20.59,20.59,0,0,1-7.37,4.16,28.1,28.1,0,0,1-8.72,1.34,17.52,17.52,0,0,1-10.19-2.95q-4.29-2.94-4.29-8.85,0-6.16,3.89-9.25t11.94-4.69l21.71-4.52v7.47A25.33,25.33,0,0,1,1722.49,249.4Z"/><path class="cls-2" d="M229.72,27.68A70.07,70.07,0,0,0,174.52.54H0L127.1,166.88A21.21,21.21,0,0,0,157,170.53l.37-.26a21.27,21.27,0,0,0,4.32-29.83L88.12,44.11h86.4A26.39,26.39,0,0,1,195.24,54.3L377.17,290.39l27.51-35.66Z"/><path class="cls-1" d="M582.12,0A61.28,61.28,0,0,0,529.5,92.77L404.75,254.83l-.07-.1-27.51,35.66.1.13-34.66,45.05a20,20,0,0,1-15.95,7.84h0a19.83,19.83,0,0,1-15.92-7.91L288,305.84l-21.21-27.78a61.3,61.3,0,1,0-52.09,29,60.07,60.07,0,0,0,17.47-2.55l21.21,27.79L276.08,362a63.2,63.2,0,0,0,50.48,25h.1a63.12,63.12,0,0,0,50.47-24.87l186.52-242.3,0,0a62,62,0,0,0,18.43,2.81,61.3,61.3,0,0,0,0-122.6Zm-350,249.33a19,19,0,0,1-1,3.32,22.66,22.66,0,0,1-1.64,3,18.22,18.22,0,0,1-4.8,4.79,21.46,21.46,0,0,1-3,1.64,13.55,13.55,0,0,1-2.48.81c-.2,0-.41.1-.61.13a8.05,8.05,0,0,1-1.81.3,13.58,13.58,0,0,1-2,.14,16.67,16.67,0,0,1-5.69-1,10.56,10.56,0,0,1-2.25-.93,6.84,6.84,0,0,1-1.07-.57,12.1,12.1,0,0,1-1.68-1.14,17.6,17.6,0,0,1-7-14.11c0-.61,0-1.21.1-1.81a17.78,17.78,0,0,1,.27-1.78,19,19,0,0,1,1-3.32,21.46,21.46,0,0,1,1.64-3,18.08,18.08,0,0,1,4.79-4.8,22.66,22.66,0,0,1,3-1.64,19,19,0,0,1,3.32-1,15.42,15.42,0,0,1,1.77-.26,18.72,18.72,0,0,1,2-.07,15.32,15.32,0,0,1,3.25.33,1.87,1.87,0,0,1,.34.07,22.28,22.28,0,0,1,3.15.94,22.54,22.54,0,0,1,3,1.64,18.82,18.82,0,0,1,2.62,2.18,17.64,17.64,0,0,1,5.19,12.54,15.81,15.81,0,0,1-.1,1.81A13.53,13.53,0,0,1,232.1,249.33ZM582.12,79A17.73,17.73,0,1,1,599.85,61.3,17.76,17.76,0,0,1,582.12,79Z"/></svg>