<svg width="40" height="40" viewBox="0 0 40 40" fill="none" xmlns="http://www.w3.org/2000/svg">
<path d="M18.325 7.0146L18.325 28.9646L13.525 24.1646C12.875 23.5146 11.825 23.5146 11.175 24.1646C10.8629 24.476 10.6875 24.8987 10.6875 25.3396C10.6875 25.7805 10.8629 26.2032 11.175 26.5146L18.825 34.1646C19.475 34.8146 20.525 34.8146 21.175 34.1646L28.825 26.5146C29.475 25.8646 29.475 24.8146 28.825 24.1646C28.175 23.5146 27.125 23.5146 26.475 24.1646L21.6583 28.9646L21.6583 7.0146C21.6583 6.09793 20.9083 5.34793 19.9916 5.34793C19.075 5.34793 18.325 6.09793 18.325 7.0146Z" fill="#181D3D"/>
</svg>
