<svg width="45" height="45" viewBox="0 0 45 45" fill="none" xmlns="http://www.w3.org/2000/svg">
<path fill-rule="evenodd" clip-rule="evenodd" d="M9.375 5.625H35.625C37.6875 5.625 39.375 7.3125 39.375 9.375V35.625C39.375 37.6875 37.6875 39.375 35.625 39.375H9.375C7.3125 39.375 5.625 37.6875 5.625 35.625V9.375C5.625 7.3125 7.3125 5.625 9.375 5.625ZM13.125 30C13.125 31.0312 13.9688 31.875 15 31.875C16.0312 31.875 16.875 31.0312 16.875 30V20.625C16.875 19.5938 16.0312 18.75 15 18.75C13.9688 18.75 13.125 19.5938 13.125 20.625V30ZM22.5 31.875C21.4688 31.875 20.625 31.0312 20.625 30V15C20.625 13.9688 21.4688 13.125 22.5 13.125C23.5312 13.125 24.375 13.9688 24.375 15V30C24.375 31.0312 23.5312 31.875 22.5 31.875ZM28.125 30C28.125 31.0312 28.9688 31.875 30 31.875C31.0312 31.875 31.875 31.0312 31.875 30V26.25C31.875 25.2188 31.0312 24.375 30 24.375C28.9688 24.375 28.125 25.2188 28.125 26.25V30Z" fill="#F65664"/>
</svg>
